<?xml version="1.0" encoding="UTF-8" standalone="no"?>
<!-- Created with Inkscape (http://www.inkscape.org/) -->

<svg
   xmlns:dc="http://purl.org/dc/elements/1.1/"
   xmlns:cc="http://creativecommons.org/ns#"
   xmlns:rdf="http://www.w3.org/1999/02/22-rdf-syntax-ns#"
   xmlns:svg="http://www.w3.org/2000/svg"
   xmlns="http://www.w3.org/2000/svg"
   xmlns:xlink="http://www.w3.org/1999/xlink"
   xmlns:sodipodi="http://sodipodi.sourceforge.net/DTD/sodipodi-0.dtd"
   xmlns:inkscape="http://www.inkscape.org/namespaces/inkscape"
   width="309.68192"
   height="880.37854"
   id="svg2"
   sodipodi:version="0.32"
   inkscape:version="0.92+devel unknown"
   sodipodi:docname="bottle.svg"
   inkscape:output_extension="org.inkscape.output.svg.inkscape"
   sodipodi:modified="true"
   version="1.0">
  <sodipodi:namedview
     id="base"
     pagecolor="#ffffff"
     bordercolor="#666666"
     borderopacity="1.0"
     gridtolerance="10000"
     guidetolerance="10"
     objecttolerance="10"
     inkscape:pageopacity="0.0"
     inkscape:pageshadow="2"
     inkscape:zoom="0.7"
     inkscape:cx="79.282895"
     inkscape:cy="358.15117"
     inkscape:document-units="px"
     inkscape:current-layer="layer2"
     inkscape:window-width="1920"
     inkscape:window-height="1080"
     inkscape:window-x="0"
     inkscape:window-y="0"
     showgrid="false"
     inkscape:document-rotation="0"
     inkscape:window-maximized="1"
     fit-margin-top="0"
     fit-margin-left="0"
     fit-margin-right="0"
     fit-margin-bottom="0"
     inkscape:lockguides="false"
     inkscape:pagecheckerboard="true"
     inkscape:showpageshadow="false" />
  <defs
     id="defs4">
    <linearGradient
       id="linearGradient3266"
       inkscape:collect="always">
      <stop
         id="stop3268"
         offset="0"
         style="stop-color: rgb(204, 204, 204); stop-opacity: 0.554502;" />
      <stop
         id="stop3270"
         offset="1"
         style="stop-color: rgb(204, 204, 204); stop-opacity: 0;" />
    </linearGradient>
    <linearGradient
       id="linearGradient3237">
      <stop
         id="stop3239"
         offset="0"
         style="stop-color: rgb(230, 230, 230); stop-opacity: 1;" />
      <stop
         id="stop3241"
         offset="1"
         style="stop-color: rgb(255, 253, 248); stop-opacity: 1;" />
    </linearGradient>
    <linearGradient
       id="linearGradient3201">
      <stop
         id="stop3203"
         offset="0"
         style="stop-color: rgb(97, 97, 97); stop-opacity: 1;" />
      <stop
         id="stop3205"
         offset="1"
         style="stop-color: black; stop-opacity: 1;" />
    </linearGradient>
    <linearGradient
       id="linearGradient3145"
       inkscape:collect="always">
      <stop
         id="stop3147"
         offset="0"
         style="stop-color: white; stop-opacity: 1;" />
      <stop
         id="stop3149"
         offset="1"
         style="stop-color: white; stop-opacity: 0;" />
    </linearGradient>
    <linearGradient
       id="linearGradient3127">
      <stop
         id="stop3129"
         offset="0"
         style="stop-color: rgb(211, 221, 221); stop-opacity: 1;" />
      <stop
         id="stop3131"
         offset="1"
         style="stop-color: rgb(237, 221, 237); stop-opacity: 0;" />
    </linearGradient>
    <linearGradient
       y2="199.28616"
       x2="455.0332"
       y1="648.63007"
       x1="455.03323"
       gradientTransform="translate(32.072,-20.045)"
       gradientUnits="userSpaceOnUse"
       id="linearGradient3462"
       xlink:href="#linearGradient3237"
       inkscape:collect="always" />
    <radialGradient
       r="52.417953"
       fy="84.005463"
       fx="443.04492"
       cy="84.005463"
       cx="443.04492"
       spreadMethod="reflect"
       gradientTransform="matrix(-0.373717,-0.374084,0.480016,-0.479544,645.398,301.932)"
       gradientUnits="userSpaceOnUse"
       id="radialGradient3464"
       xlink:href="#linearGradient3201"
       inkscape:collect="always" />
    <linearGradient
       y2="158.79811"
       x2="503.15628"
       y1="148.38396"
       x1="408.42896"
       gradientTransform="translate(32.072,-20.045)"
       gradientUnits="userSpaceOnUse"
       id="linearGradient3466"
       xlink:href="#linearGradient3127"
       inkscape:collect="always" />
    <linearGradient
       y2="158.79811"
       x2="503.15628"
       y1="148.38396"
       x1="408.42896"
       gradientTransform="matrix(1,0.0218939,0,1,33.9479,-42.3653)"
       gradientUnits="userSpaceOnUse"
       id="linearGradient3468"
       xlink:href="#linearGradient3127"
       inkscape:collect="always" />
    <linearGradient
       y2="158.79811"
       x2="503.15628"
       y1="148.38396"
       x1="408.42896"
       gradientTransform="matrix(1,0.0218939,0,1,33.2536,-54.168)"
       gradientUnits="userSpaceOnUse"
       id="linearGradient3470"
       xlink:href="#linearGradient3127"
       inkscape:collect="always" />
    <linearGradient
       y2="129.3214"
       x2="348.88254"
       y1="129.3214"
       x1="327.34286"
       gradientTransform="matrix(0.17857,0,0,0.400002,393.347,82.4287)"
       gradientUnits="userSpaceOnUse"
       id="linearGradient3472"
       xlink:href="#linearGradient3145"
       inkscape:collect="always" />
    <linearGradient
       y2="129.3214"
       x2="348.88254"
       y1="129.3214"
       x1="327.34286"
       gradientTransform="matrix(0.17857,0,0,0.400002,399.711,81.0401)"
       gradientUnits="userSpaceOnUse"
       id="linearGradient3474"
       xlink:href="#linearGradient3145"
       inkscape:collect="always" />
    <linearGradient
       y2="129.3214"
       x2="348.88254"
       y1="129.3214"
       x1="327.34286"
       gradientTransform="matrix(0.17857,0,0,0.400002,405.768,79.9865)"
       gradientUnits="userSpaceOnUse"
       id="linearGradient3476"
       xlink:href="#linearGradient3145"
       inkscape:collect="always" />
    <linearGradient
       y2="129.3214"
       x2="348.88254"
       y1="129.3214"
       x1="327.34286"
       gradientTransform="matrix(0.17857,0,0,0.400002,412.44,80.3459)"
       gradientUnits="userSpaceOnUse"
       id="linearGradient3478"
       xlink:href="#linearGradient3145"
       inkscape:collect="always" />
    <linearGradient
       y2="129.3214"
       x2="348.88254"
       y1="129.3214"
       x1="327.34286"
       gradientTransform="matrix(0.17857,0,0,0.400002,382.173,71.0229)"
       gradientUnits="userSpaceOnUse"
       id="linearGradient3480"
       xlink:href="#linearGradient3145"
       inkscape:collect="always" />
    <linearGradient
       y2="129.3214"
       x2="348.88254"
       y1="129.3214"
       x1="327.34286"
       gradientTransform="matrix(0.17857,0,0,0.400002,389.533,69.2873)"
       gradientUnits="userSpaceOnUse"
       id="linearGradient3482"
       xlink:href="#linearGradient3145"
       inkscape:collect="always" />
    <linearGradient
       y2="129.3214"
       x2="348.88254"
       y1="129.3214"
       x1="327.34286"
       gradientTransform="matrix(0.17857,0,0,0.400002,396.892,67.8987)"
       gradientUnits="userSpaceOnUse"
       id="linearGradient3484"
       xlink:href="#linearGradient3145"
       inkscape:collect="always" />
    <linearGradient
       y2="129.3214"
       x2="348.88254"
       y1="129.3214"
       x1="327.34286"
       gradientTransform="matrix(0.17857,0,0,0.400002,404.251,67.2044)"
       gradientUnits="userSpaceOnUse"
       id="linearGradient3486"
       xlink:href="#linearGradient3145"
       inkscape:collect="always" />
    <linearGradient
       y2="129.3214"
       x2="348.88254"
       y1="129.3214"
       x1="327.34286"
       gradientTransform="matrix(0.17857,0,0,0.400002,411.611,66.8573)"
       gradientUnits="userSpaceOnUse"
       id="linearGradient3488"
       xlink:href="#linearGradient3145"
       inkscape:collect="always" />
    <linearGradient
       y2="129.3214"
       x2="348.88254"
       y1="129.3214"
       x1="327.34286"
       gradientTransform="matrix(0.17857,0,0,0.400002,418.97,66.5101)"
       gradientUnits="userSpaceOnUse"
       id="linearGradient3490"
       xlink:href="#linearGradient3145"
       inkscape:collect="always" />
    <linearGradient
       y2="614.3996"
       x2="933.36542"
       y1="614.3996"
       x1="1022.5411"
       spreadMethod="reflect"
       gradientTransform="translate(-447.003,-32.072)"
       gradientUnits="userSpaceOnUse"
       id="linearGradient3492"
       xlink:href="#linearGradient3237"
       inkscape:collect="always" />
    <linearGradient
       y2="163.15881"
       x2="431.72992"
       y1="318.12643"
       x1="358.65466"
       gradientTransform="translate(32.072,-20.045)"
       gradientUnits="userSpaceOnUse"
       id="linearGradient3494"
       xlink:href="#linearGradient3266"
       inkscape:collect="always" />
    <linearGradient
       y2="290.5239"
       x2="404.06097"
       y1="190.76137"
       x1="468.31088"
       gradientTransform="matrix(-1,0,0,1,942.587,-24.8761)"
       gradientUnits="userSpaceOnUse"
       id="linearGradient3496"
       xlink:href="#linearGradient3266"
       inkscape:collect="always" />
    <linearGradient
       y2="379.42099"
       x2="909.31104"
       y1="303.5163"
       x1="910.65863"
       gradientTransform="matrix(1,0,-0.0634712,1,-423.449,-22.0495)"
       gradientUnits="userSpaceOnUse"
       id="linearGradient3498"
       xlink:href="#linearGradient3145"
       inkscape:collect="always" />
    <linearGradient
       y2="158.79811"
       x2="503.15628"
       y1="148.38396"
       x1="408.42896"
       gradientTransform="translate(32.072,-20.045)"
       gradientUnits="userSpaceOnUse"
       id="linearGradient4325"
       xlink:href="#linearGradient3127"
       inkscape:collect="always" />
    <linearGradient
       y2="158.79811"
       x2="503.15628"
       y1="148.38396"
       x1="408.42896"
       gradientTransform="matrix(1,0.0218939,0,1,33.9479,-42.3653)"
       gradientUnits="userSpaceOnUse"
       id="linearGradient4327"
       xlink:href="#linearGradient3127"
       inkscape:collect="always" />
    <linearGradient
       y2="158.79811"
       x2="503.15628"
       y1="148.38396"
       x1="408.42896"
       gradientTransform="matrix(1,0.0218939,0,1,33.2536,-54.168)"
       gradientUnits="userSpaceOnUse"
       id="linearGradient4329"
       xlink:href="#linearGradient3127"
       inkscape:collect="always" />
    <linearGradient
       y2="129.3214"
       x2="348.88254"
       y1="129.3214"
       x1="327.34286"
       gradientTransform="matrix(0.17857,0,0,0.400002,393.347,82.4287)"
       gradientUnits="userSpaceOnUse"
       id="linearGradient4331"
       xlink:href="#linearGradient3145"
       inkscape:collect="always" />
    <linearGradient
       y2="129.3214"
       x2="348.88254"
       y1="129.3214"
       x1="327.34286"
       gradientTransform="matrix(0.17857,0,0,0.400002,399.711,81.0401)"
       gradientUnits="userSpaceOnUse"
       id="linearGradient4333"
       xlink:href="#linearGradient3145"
       inkscape:collect="always" />
    <linearGradient
       y2="129.3214"
       x2="348.88254"
       y1="129.3214"
       x1="327.34286"
       gradientTransform="matrix(0.17857,0,0,0.400002,405.768,79.9865)"
       gradientUnits="userSpaceOnUse"
       id="linearGradient4335"
       xlink:href="#linearGradient3145"
       inkscape:collect="always" />
    <linearGradient
       y2="129.3214"
       x2="348.88254"
       y1="129.3214"
       x1="327.34286"
       gradientTransform="matrix(0.17857,0,0,0.400002,412.44,80.3459)"
       gradientUnits="userSpaceOnUse"
       id="linearGradient4337"
       xlink:href="#linearGradient3145"
       inkscape:collect="always" />
    <linearGradient
       y2="129.3214"
       x2="348.88254"
       y1="129.3214"
       x1="327.34286"
       gradientTransform="matrix(0.17857,0,0,0.400002,382.173,71.0229)"
       gradientUnits="userSpaceOnUse"
       id="linearGradient4339"
       xlink:href="#linearGradient3145"
       inkscape:collect="always" />
    <linearGradient
       y2="129.3214"
       x2="348.88254"
       y1="129.3214"
       x1="327.34286"
       gradientTransform="matrix(0.17857,0,0,0.400002,389.533,69.2873)"
       gradientUnits="userSpaceOnUse"
       id="linearGradient4341"
       xlink:href="#linearGradient3145"
       inkscape:collect="always" />
    <linearGradient
       y2="129.3214"
       x2="348.88254"
       y1="129.3214"
       x1="327.34286"
       gradientTransform="matrix(0.17857,0,0,0.400002,396.892,67.8987)"
       gradientUnits="userSpaceOnUse"
       id="linearGradient4343"
       xlink:href="#linearGradient3145"
       inkscape:collect="always" />
    <linearGradient
       y2="129.3214"
       x2="348.88254"
       y1="129.3214"
       x1="327.34286"
       gradientTransform="matrix(0.17857,0,0,0.400002,404.251,67.2044)"
       gradientUnits="userSpaceOnUse"
       id="linearGradient4345"
       xlink:href="#linearGradient3145"
       inkscape:collect="always" />
    <linearGradient
       y2="129.3214"
       x2="348.88254"
       y1="129.3214"
       x1="327.34286"
       gradientTransform="matrix(0.17857,0,0,0.400002,411.611,66.8573)"
       gradientUnits="userSpaceOnUse"
       id="linearGradient4347"
       xlink:href="#linearGradient3145"
       inkscape:collect="always" />
    <linearGradient
       y2="129.3214"
       x2="348.88254"
       y1="129.3214"
       x1="327.34286"
       gradientTransform="matrix(0.17857,0,0,0.400002,418.97,66.5101)"
       gradientUnits="userSpaceOnUse"
       id="linearGradient4349"
       xlink:href="#linearGradient3145"
       inkscape:collect="always" />
    <linearGradient
       y2="614.3996"
       x2="933.36542"
       y1="614.3996"
       x1="1022.5411"
       spreadMethod="reflect"
       gradientTransform="translate(-447.003,-32.072)"
       gradientUnits="userSpaceOnUse"
       id="linearGradient4351"
       xlink:href="#linearGradient3237"
       inkscape:collect="always" />
    <linearGradient
       y2="163.15881"
       x2="431.72992"
       y1="318.12643"
       x1="358.65466"
       gradientTransform="translate(32.072,-20.045)"
       gradientUnits="userSpaceOnUse"
       id="linearGradient4353"
       xlink:href="#linearGradient3266"
       inkscape:collect="always" />
    <linearGradient
       y2="290.5239"
       x2="404.06097"
       y1="190.76137"
       x1="468.31088"
       gradientTransform="matrix(-1,0,0,1,942.587,-24.8761)"
       gradientUnits="userSpaceOnUse"
       id="linearGradient4355"
       xlink:href="#linearGradient3266"
       inkscape:collect="always" />
    <linearGradient
       y2="379.42099"
       x2="909.31104"
       y1="303.5163"
       x1="910.65863"
       gradientTransform="matrix(1,0,-0.0634712,1,-423.449,-22.0495)"
       gradientUnits="userSpaceOnUse"
       id="linearGradient4357"
       xlink:href="#linearGradient3145"
       inkscape:collect="always" />
    <linearGradient
       inkscape:collect="always"
       xlink:href="#linearGradient3127"
       id="linearGradient4856"
       gradientUnits="userSpaceOnUse"
       gradientTransform="matrix(1,0.0218939,0,1,33.9479,-42.3653)"
       x1="408.42896"
       y1="148.38396"
       x2="503.15628"
       y2="158.79811" />
  </defs>
  <metadata
     id="metadata7">
    <rdf:RDF>
      <cc:Work
         rdf:about="">
        <dc:format>image/svg+xml</dc:format>
        <dc:type
           rdf:resource="http://purl.org/dc/dcmitype/StillImage" />
        <dc:title>buttle</dc:title>
        <cc:license
           rdf:resource="http://creativecommons.org/publicdomain/zero/1.0/" />
      </cc:Work>
      <cc:License
         rdf:about="http://creativecommons.org/publicdomain/zero/1.0/">
        <cc:permits
           rdf:resource="http://creativecommons.org/ns#Reproduction" />
        <cc:permits
           rdf:resource="http://creativecommons.org/ns#Distribution" />
        <cc:permits
           rdf:resource="http://creativecommons.org/ns#DerivativeWorks" />
      </cc:License>
    </rdf:RDF>
  </metadata>
  <g
     inkscape:groupmode="layer"
     id="layer3"
     inkscape:label="BG"
     transform="matrix(1.066667,0,0,1.066667,-393.43657,-82.988399)"
     sodipodi:insensitive="true">
    <path
       style="display:inline;opacity:1;fill:#797979;fill-opacity:1;fill-rule:evenodd;stroke:none;stroke-width:4.40179062;stroke-linecap:round;stroke-linejoin:miter;stroke-miterlimit:4;stroke-dasharray:none;stroke-opacity:1"
       d="m 440.64174,280.70988 c -12.57169,40.82221 -58.85476,67.81573 -65.91142,111.13048 -9.54972,58.61742 4.86856,111.60319 2.40838,175.85904 -2.46017,64.25586 -11.83431,46.58861 -2.33806,128.2544 -0.99493,36.02258 -11.66504,164.83143 27.02472,187.05463 42.26975,22.44132 95.6021,21.98846 144.06041,20.32051 35.56477,-3.05292 75.94655,-10.85648 98.60578,-35.30559 4.6146,-106.95764 2.82471,-219.44866 7.77137,-320.51557 2.67058,-62.28109 15.35118,-125.57383 -5.53287,-184.79322 -11.96756,-33.93595 -55.08745,-58.29728 -59.9385,-93.54026 -1.20345,-14.83557 -2.97975,-28.28189 -5.24271,-40.38439 -43.95028,-3.69237 -87.4538,-4.80235 -129.96636,-0.18405 -6.47646,18.14933 -7.41646,28.16596 -10.94074,52.10402 z"
       id="path3404"
       sodipodi:nodetypes="cszcccccscccc"
       inkscape:connector-curvature="0" />
  </g>
  <g
     transform="matrix(1.066667,0,0,1.066667,-393.43657,-82.988399)"
     id="layer1"
     inkscape:groupmode="layer"
     inkscape:label="LidAndBottom"
     style="display:inline"
     sodipodi:insensitive="true">
    <g
       id="g4290"
       transform="matrix(1.210985,0,0,1,-77.821121,0)">
      <ellipse
         transform="matrix(0.895623,0,0,0.873418,91.8546,-21.6956)"
         id="path3408"
         style="opacity:1;fill:#e0e1dc;fill-opacity:1;stroke:none;stroke-width:2.0999999;stroke-linecap:round;stroke-miterlimit:4;stroke-dasharray:none;stroke-opacity:1"
         cx="441.38638"
         cy="189.89702"
         rx="51.550041"
         ry="13.711964" />
      <ellipse
         style="opacity:1;fill:#c2bab9;fill-opacity:1;stroke:none;stroke-width:2.0999999;stroke-linecap:round;stroke-miterlimit:4;stroke-dasharray:none;stroke-opacity:1"
         id="path3410"
         transform="matrix(0.76431,0,0,0.772152,151.376,-5.58979)"
         cx="441.38638"
         cy="189.89702"
         rx="51.550041"
         ry="13.711964" />
      <path
         sodipodi:nodetypes="cccccccccccccccccccccccccccccccc"
         id="path3412"
         d="m 440.65379,144.33736 c -1.15713,-1.15713 -2.31425,-2.31425 -3.47138,-3.47138 -0.11571,-2.89282 -0.23143,-5.78564 -0.34714,-8.67846 -0.69428,-0.69428 -1.38855,-1.38855 -2.08283,-2.08283 1.15713,-2.77711 2.31426,-5.55421 3.47139,-8.33132 1.04141,-0.80999 2.08283,-1.61997 3.12424,-2.42996 0,0 -3.47138,-2.42997 -3.81852,-4.5128 -0.34714,-2.08283 -0.69428,-3.81852 0.69428,-5.20708 1.38855,-1.38855 2.42996,-1.73569 2.42996,-1.73569 0,0 -3.12424,-4.85994 -2.7771,-7.63704 0.34714,-2.77711 4.16566,-6.59563 4.16566,-6.59563 0.11571,-1.50427 0.23143,-3.00853 0.34714,-4.5128 0,0 1.76474,-1.36395 3.81852,-3.81852 1.74274,-2.08283 23.15995,-6.59563 28.46534,-7.28991 4.18742,-0.54798 18.05119,0 23.95254,0.34714 5.90136,0.34714 23.25827,3.47139 26.38252,4.16566 3.12424,0.69428 6.24849,4.85994 6.24849,4.85994 0.11571,1.38855 0.23143,2.77711 0.34714,4.16566 0,0 2.08283,1.73569 3.47138,2.77711 1.38855,1.04141 3.12424,6.59562 3.12424,6.59562 -0.34714,1.04142 -0.69427,2.08283 -1.04141,3.12425 0.11571,1.15713 0.23143,2.31425 0.34714,3.47138 -1.15713,1.38855 -2.31426,2.77711 -3.47139,4.16566 0,0 -0.69427,0.69428 1.04142,2.42997 1.73569,1.73569 2.42997,5.20708 2.08283,6.59563 -0.34714,1.38855 -1.38855,1.73569 -1.38855,1.73569 1.15713,1.96712 2.31425,3.93423 3.47138,5.90135 0.18999,2.85138 0.67598,5.99877 0,7.98418 0,0 -3.81852,7.63705 -4.85994,7.98418 -1.04141,0.34714 -5.55421,-5.55421 -24.64682,-6.24848 -20.99871,-1.46051 -39.29321,-1.10212 -48.25223,0.69427 -9.71987,1.73569 -19.43974,6.94277 -20.8283,5.55421 z"
         style="opacity:1;fill:#e6e6e6;fill-opacity:1;fill-rule:evenodd;stroke:none;stroke-width:1px;stroke-linecap:butt;stroke-linejoin:miter;stroke-opacity:1"
         inkscape:connector-curvature="0" />
      <path
         sodipodi:nodetypes="csc"
         id="path3414"
         d="m 441.00093,130.79897 c 0,0 17.35693,-11.10842 59.01352,-9.0256 26.01159,1.3115 34.01955,9.71988 34.01955,9.71988"
         style="fill:none;fill-rule:evenodd;stroke:url(#linearGradient4325);stroke-width:2.0999999;stroke-linecap:round;stroke-linejoin:miter;stroke-miterlimit:4;stroke-dasharray:none;stroke-opacity:1"
         inkscape:connector-curvature="0" />
      <path
         sodipodi:nodetypes="csc"
         id="path3416"
         d="m 442.87681,117.43174 c 0,0 17.70406,-11.05275 59.36065,-8.05791 26.01159,1.881 33.67242,10.78903 33.67242,10.78903"
         style="fill:none;fill-rule:evenodd;stroke:url(#linearGradient4856);stroke-width:2.0999999;stroke-linecap:round;stroke-linejoin:miter;stroke-miterlimit:4;stroke-dasharray:none;stroke-opacity:1"
         inkscape:connector-curvature="0" />
      <path
         style="fill:none;fill-rule:evenodd;stroke:url(#linearGradient4329);stroke-width:2.0999999;stroke-linecap:round;stroke-linejoin:miter;stroke-miterlimit:4;stroke-dasharray:none;stroke-opacity:1"
         d="m 442.18253,105.62904 c 0,0 15.96837,-11.05275 57.62496,-8.05791 26.01159,1.881 35.40811,10.78903 35.40811,10.78903"
         id="path3418"
         sodipodi:nodetypes="csc"
         inkscape:connector-curvature="0" />
      <rect
         transform="rotate(-2.1339407)"
         ry="0"
         rx="0.030989386"
         y="132.07472"
         x="451.98798"
         height="4.1656976"
         width="3.4713421"
         id="rect3420"
         style="opacity:0.71291899;fill:url(#linearGradient4331);fill-opacity:1;stroke:none;stroke-width:2.0999999;stroke-linecap:round;stroke-miterlimit:4;stroke-dasharray:none;stroke-opacity:1" />
      <rect
         transform="rotate(-2.1339407)"
         style="opacity:0.71291899;fill:url(#linearGradient4333);fill-opacity:1;stroke:none;stroke-width:2.0999999;stroke-linecap:round;stroke-miterlimit:4;stroke-dasharray:none;stroke-opacity:1"
         id="rect3422"
         width="3.4713421"
         height="4.1656976"
         x="458.35217"
         y="130.68617"
         rx="0.030989386"
         ry="0" />
      <rect
         transform="rotate(-2.133935)"
         ry="0"
         rx="0.030989401"
         y="129.63263"
         x="464.40851"
         height="4.1656995"
         width="3.4713438"
         id="rect3424"
         style="opacity:0.71291899;fill:url(#linearGradient4335);fill-opacity:1;stroke:none;stroke-width:2.0999999;stroke-linecap:round;stroke-miterlimit:4;stroke-dasharray:none;stroke-opacity:1" />
      <rect
         transform="rotate(-2.1339407)"
         style="opacity:0.71291899;fill:url(#linearGradient4337);fill-opacity:1;stroke:none;stroke-width:2.0999999;stroke-linecap:round;stroke-miterlimit:4;stroke-dasharray:none;stroke-opacity:1"
         id="rect3426"
         width="3.4713421"
         height="4.1656976"
         x="471.08066"
         y="129.9919"
         rx="0.030989386"
         ry="0" />
      <rect
         transform="rotate(-3.4620267)"
         style="opacity:0.71291899;fill:url(#linearGradient4339);fill-opacity:1;stroke:none;stroke-width:2.0999999;stroke-linecap:round;stroke-miterlimit:4;stroke-dasharray:none;stroke-opacity:1"
         id="rect3428"
         width="3.471334"
         height="4.1656899"
         x="440.81427"
         y="120.66895"
         rx="0.030989315"
         ry="0" />
      <rect
         transform="rotate(-3.4620267)"
         ry="0"
         rx="0.030989315"
         y="118.93324"
         x="448.17358"
         height="4.1656899"
         width="3.471334"
         id="rect3430"
         style="opacity:0.71291899;fill:url(#linearGradient4341);fill-opacity:1;stroke:none;stroke-width:2.0999999;stroke-linecap:round;stroke-miterlimit:4;stroke-dasharray:none;stroke-opacity:1" />
      <rect
         transform="rotate(-3.4620267)"
         style="opacity:0.71291899;fill:url(#linearGradient4343);fill-opacity:1;stroke:none;stroke-width:2.0999999;stroke-linecap:round;stroke-miterlimit:4;stroke-dasharray:none;stroke-opacity:1"
         id="rect3432"
         width="3.471334"
         height="4.1656899"
         x="455.53296"
         y="117.54469"
         rx="0.030989315"
         ry="0" />
      <rect
         transform="rotate(-3.4620267)"
         ry="0"
         rx="0.030989315"
         y="116.85041"
         x="462.89227"
         height="4.1656899"
         width="3.471334"
         id="rect3434"
         style="opacity:0.71291899;fill:url(#linearGradient4345);fill-opacity:1;stroke:none;stroke-width:2.0999999;stroke-linecap:round;stroke-miterlimit:4;stroke-dasharray:none;stroke-opacity:1" />
      <rect
         transform="rotate(-3.4620267)"
         style="opacity:0.71291899;fill:url(#linearGradient4347);fill-opacity:1;stroke:none;stroke-width:2.0999999;stroke-linecap:round;stroke-miterlimit:4;stroke-dasharray:none;stroke-opacity:1"
         id="rect3436"
         width="3.471334"
         height="4.1656899"
         x="470.25159"
         y="116.50327"
         rx="0.030989315"
         ry="0" />
      <rect
         transform="rotate(-3.4620267)"
         ry="0"
         rx="0.030989315"
         y="116.15614"
         x="477.61093"
         height="4.1656899"
         width="3.471334"
         id="rect3438"
         style="opacity:0.71291899;fill:url(#linearGradient4349);fill-opacity:1;stroke:none;stroke-width:2.0999999;stroke-linecap:round;stroke-miterlimit:4;stroke-dasharray:none;stroke-opacity:1" />
      <path
         sodipodi:nodetypes="ccccc"
         id="path3448"
         d="m 384.06252,869.60896 c 62.68089,29.6457 151.57,29.11782 209.73551,-6.41935 6.2956,-1.33066 -8.5821,12.5783 -10.2395,14.22718 -39.96666,29.00881 -106.79149,29.32284 -153.02439,16.15859 -15.27078,-5.16453 -37.94249,-8.50081 -46.47162,-23.96642 z"
         style="opacity:1;fill:#6a6a6a;fill-opacity:1;fill-rule:evenodd;stroke:none;stroke-width:1px;stroke-linecap:butt;stroke-linejoin:miter;stroke-opacity:1"
         inkscape:connector-curvature="0" />
      <path
         sodipodi:nodetypes="ccccc"
         id="path3450"
         d="m 449.3024,149.10629 c -3.65167,49.24144 -8.73185,98.36025 -13.51782,147.50011 -14.21511,23.62568 -16.16221,-0.78406 -9.58325,-19.59701 10.5195,-39.2748 13.25256,-80.13376 16.0216,-120.46513 0.75636,-3.45807 3.25462,-7.02539 7.07947,-7.43797 z"
         style="fill:url(#linearGradient4353);fill-opacity:1;fill-rule:evenodd;stroke:none;stroke-width:1px;stroke-linecap:butt;stroke-linejoin:miter;stroke-opacity:1"
         inkscape:connector-curvature="0" />
      <path
         style="fill:url(#linearGradient4355);fill-opacity:1;fill-rule:evenodd;stroke:none;stroke-width:1px;stroke-linecap:butt;stroke-linejoin:miter;stroke-opacity:1"
         d="m 525.35586,144.2752 c 3.65167,49.24144 4.33995,97.04268 9.12592,146.18254 2.49912,-1.66089 10.7734,4.52505 14.10308,11.8917 11.33107,8.58367 28.24757,21.7421 1.18964,-24.02249 -10.5195,-39.2748 -14.57013,-86.28241 -17.33917,-126.61378 -0.75636,-3.45807 -3.25462,-7.02539 -7.07947,-7.43797 z"
         id="path3452"
         sodipodi:nodetypes="cccccc"
         inkscape:connector-curvature="0" />
      <ellipse
         transform="matrix(1,0,0,0.861783,-438.985,-25.1399)"
         id="path3456"
         style="opacity:0.36842101;fill:#757575;fill-opacity:1;stroke:none;stroke-width:4;stroke-linecap:round;stroke-miterlimit:4;stroke-dasharray:none;stroke-opacity:0.554502"
         cx="925.07648"
         cy="1003.252"
         rx="95.213722"
         ry="33.074242" />
      <path
         id="path3460"
         d="m 452.07867,300.67491 c 5.15901,2.54427 21.76336,2.5369 32.07199,0 13.43278,-3.30574 22.25847,2.79543 31.43585,10.0225 8.58583,6.76124 11.01678,15.91618 10.50026,24.05399 -0.78501,12.36808 -10.38647,13.53631 -17.30828,20.045 -6.08943,5.726 -21.14392,0.46762 -25.93126,-2.0045 -8.36438,-4.31927 -12.9115,-5.63225 -21.41335,-10.0225 -7.23624,-3.7367 -16.63818,-4.45136 -23.54509,-8.018 -11.45009,-5.91269 -11.13749,-12.14559 -2.73672,-20.04499 5.86704,-5.51688 7.61943,-6.94557 16.9266,-14.0315 z"
         style="opacity:0.84210498;fill:url(#linearGradient4357);fill-opacity:1;fill-rule:evenodd;stroke:none;stroke-width:1px;stroke-linecap:butt;stroke-linejoin:miter;stroke-opacity:1"
         inkscape:connector-curvature="0" />
    </g>
  </g>
  <g
     inkscape:groupmode="layer"
     id="layer2"
     inkscape:label="Fill"
     style="display:inline"
     transform="matrix(1.066667,0,0,1.066667,-393.43657,-82.988399)">
    <path
       style="opacity:0.1;fill:#ff0000;fill-opacity:1;fill-rule:evenodd;stroke:#464746;stroke-width:4.40179062;stroke-linecap:round;stroke-linejoin:miter;stroke-miterlimit:4;stroke-dasharray:none;stroke-opacity:1"
       d="m 459.5663,142.13431 c -11.66531,43.76512 -13.819,89.41249 -20.94973,133.83889 -14.84832,41.40163 -62.32695,66.83553 -64.51387,113.22981 3.67988,129.7773 -4.89783,259.62976 0.40185,389.35892 3.27185,31.21132 2.42807,66.51884 22.54355,92.51499 42.17495,26.81743 95.30643,24.69201 143.53087,23.88002 36.32326,-2.68039 76.26922,-8.4622 103.16254,-35.45774 5.62006,-136.05172 1.60918,-272.47418 13.63723,-408.2415 1.58838,-46.77913 -0.93942,-100.34886 -36.75375,-135.05773 -18.23592,-19.451 -36.7927,-41.87887 -36.43576,-70.11492 -3.89872,-34.72816 -11.61385,-69.34311 -18.20213,-103.27342 4.3199,-14.34438 -40.59434,-11.91109 -55.11006,-12.84555 -12.18402,1.49856 -54.28597,1.83622 -51.31074,12.16823 z"
       id="pathFill"
       inkscape:connector-curvature="0" />
  </g>
</svg>
